{"glyphs":{"0":{"ha":1042,"x_min":87,"x_max":955,"o":"m 521 0 q 214 127 340 0 q 87 434 87 254 q 214 741 87 614 q 521 868 340 868 q 828 741 701 868 q 955 434 955 614 q 828 127 955 254 q 521 0 701 0 m 521 174 q 705 250 629 174 q 781 434 781 326 q 705 618 781 543 q 521 694 629 694 q 336 618 412 694 q 260 434 260 543 q 336 250 260 326 q 521 174 412 174 z "},"1":{"ha":347,"x_min":87,"x_max":260,"o":"m 260 0 l 87 0 l 87 868 l 260 868 l 260 0 z "},"2":{"ha":1476,"x_min":87,"x_max":1389,"o":"m 1389 174 l 1389 0 l 87 0 l 87 260 q 163 445 87 369 q 347 521 239 521 l 694 521 q 756 546 731 521 q 781 608 781 571 q 756 669 781 644 q 694 694 731 694 l 174 694 l 174 868 l 694 868 q 879 792 803 868 q 955 608 955 716 q 879 423 955 499 q 694 347 803 347 l 347 347 q 286 322 311 347 q 260 260 260 297 l 260 174 l 1389 174 z "},"3":{"ha":1042,"x_min":87,"x_max":955,"o":"m 694 0 l 87 0 l 87 174 l 694 174 q 756 199 731 174 q 781 260 781 224 q 756 322 781 297 q 694 347 731 347 l 477 347 l 477 521 l 694 521 q 756 546 731 521 q 781 608 781 571 q 756 669 781 644 q 694 694 731 694 l 87 694 l 87 868 l 694 868 q 879 792 803 868 q 955 608 955 716 q 890 434 955 507 q 955 260 955 361 q 879 76 955 152 q 694 0 803 0 z "},"4":{"ha":1042,"x_min":87,"x_max":955,"o":"m 87 347 l 87 868 l 260 868 l 260 521 l 781 521 l 781 868 l 955 868 l 955 0 l 781 0 l 781 347 l 87 347 z "},"5":{"ha":1476,"x_min":87,"x_max":1389,"o":"m 1389 868 l 1389 694 l 260 694 l 260 608 q 286 546 260 571 q 347 521 311 521 l 694 521 q 879 445 803 521 q 955 260 955 369 q 879 76 955 152 q 694 0 803 0 l 174 0 l 174 174 l 694 174 q 756 199 731 174 q 781 260 781 224 q 756 322 781 297 q 694 347 731 347 l 347 347 q 163 423 239 347 q 87 608 87 499 l 87 868 l 1389 868 z "},"6":{"ha":1042,"x_min":87,"x_max":955,"o":"m 260 347 l 260 260 q 286 199 260 224 q 347 174 311 174 l 694 174 q 756 199 731 174 q 781 260 781 224 q 756 322 781 297 q 694 347 731 347 l 260 347 m 87 608 q 163 792 87 716 q 347 868 239 868 l 868 868 l 868 694 l 347 694 q 286 669 311 694 q 260 608 260 644 l 260 521 l 694 521 q 879 445 803 521 q 955 260 955 369 q 879 76 955 152 q 694 0 803 0 l 347 0 q 163 76 239 0 q 87 260 87 152 l 87 608 z "},"7":{"ha":1042,"x_min":87,"x_max":955,"o":"m 686 694 l 87 694 l 87 868 l 955 868 l 477 0 l 304 0 l 686 694 z "},"8":{"ha":1042,"x_min":87,"x_max":955,"o":"m 694 347 l 347 347 q 286 322 311 347 q 260 260 260 297 q 286 199 260 224 q 347 174 311 174 l 694 174 q 756 199 731 174 q 781 260 781 224 q 756 322 781 297 q 694 347 731 347 m 694 521 q 756 546 731 521 q 781 608 781 571 q 756 669 781 644 q 694 694 731 694 l 347 694 q 286 669 311 694 q 260 608 260 644 q 286 546 260 571 q 347 521 311 521 l 694 521 m 890 434 q 955 260 955 361 q 879 76 955 152 q 694 0 803 0 l 347 0 q 163 76 239 0 q 87 260 87 152 q 152 434 87 361 q 87 608 87 507 q 163 792 87 716 q 347 868 239 868 l 694 868 q 879 792 803 868 q 955 608 955 716 q 890 434 955 507 z "},"9":{"ha":1042,"x_min":87,"x_max":955,"o":"m 781 521 l 781 608 q 756 669 781 644 q 694 694 731 694 l 347 694 q 286 669 311 694 q 260 608 260 644 q 286 546 260 571 q 347 521 311 521 l 781 521 m 955 260 q 879 76 955 152 q 694 0 803 0 l 174 0 l 174 174 l 694 174 q 756 199 731 174 q 781 260 781 224 l 781 347 l 347 347 q 163 423 239 347 q 87 608 87 499 q 163 792 87 716 q 347 868 239 868 l 694 868 q 879 792 803 868 q 955 608 955 716 l 955 260 z "}," ":{"ha":694,"x_min":0,"x_max":0,"o":""},"!":{"ha":391,"x_min":87,"x_max":304,"o":"m 195 0 q 119 32 151 0 q 87 109 87 64 q 119 185 87 153 q 195 217 151 217 q 272 185 240 217 q 304 109 304 153 q 272 32 304 64 q 195 0 240 0 m 282 347 l 109 347 l 109 868 l 282 868 l 282 347 z "},"\"":{"ha":694,"x_min":87,"x_max":608,"o":"m 260 694 l 87 694 l 87 1042 l 260 1042 l 260 694 m 608 694 l 434 694 l 434 1042 l 608 1042 l 608 694 z "},"#":{"ha":1042,"x_min":87,"x_max":955,"o":"m 434 694 l 608 694 l 608 868 l 781 868 l 781 694 l 955 694 l 955 521 l 781 521 l 781 347 l 955 347 l 955 174 l 781 174 l 781 0 l 608 0 l 608 174 l 434 174 l 434 0 l 260 0 l 260 174 l 87 174 l 87 347 l 260 347 l 260 521 l 87 521 l 87 694 l 260 694 l 260 868 l 434 868 l 434 694 m 608 521 l 434 521 l 434 347 l 608 347 l 608 521 z "},"$":{"ha":1476,"x_min":87,"x_max":1389,"o":"m 781 868 l 781 1042 l 955 1042 l 955 868 l 1302 868 l 1302 694 l 781 694 q 720 669 745 694 q 694 608 694 644 q 720 546 694 571 q 781 521 745 521 l 1128 521 q 1313 445 1237 521 q 1389 260 1389 369 q 1313 76 1389 152 q 1128 0 1237 0 l 955 0 l 955 -174 l 781 -174 l 781 0 l 87 0 l 87 174 l 1128 174 q 1190 199 1165 174 q 1215 260 1215 224 q 1190 322 1215 297 q 1128 347 1165 347 l 781 347 q 597 423 673 347 q 521 608 521 499 q 597 792 521 716 q 781 868 673 868 z "},"%":{"ha":868,"x_min":87,"x_max":781,"o":"m 742 868 l 260 0 l 87 0 l 568 868 l 742 868 m 673 0 q 596 32 628 0 q 564 109 564 64 q 596 185 564 153 q 673 217 628 217 q 749 185 718 217 q 781 109 781 153 q 749 32 781 64 q 673 0 718 0 m 195 651 q 119 683 151 651 q 87 760 87 715 q 119 836 87 804 q 195 868 151 868 q 272 836 240 868 q 304 760 304 804 q 272 683 304 715 q 195 651 240 651 z "},"&":{"ha":1302,"x_min":87,"x_max":1215,"o":"m 694 521 q 756 546 731 521 q 781 608 781 571 q 756 669 781 644 q 694 694 731 694 l 347 694 q 286 669 311 694 q 260 608 260 644 q 286 546 260 571 q 347 521 311 521 l 694 521 m 941 347 q 955 260 955 307 q 879 76 955 152 q 694 0 803 0 l 347 0 q 163 76 239 0 q 87 260 87 152 q 152 434 87 361 q 87 608 87 507 q 163 792 87 716 q 347 868 239 868 l 694 868 q 879 792 803 868 q 955 608 955 716 q 941 521 955 562 l 1215 521 l 1215 347 l 941 347 m 694 347 l 347 347 q 286 322 311 347 q 260 260 260 297 q 286 199 260 224 q 347 174 311 174 l 694 174 q 756 199 731 174 q 781 260 781 224 q 756 322 781 297 q 694 347 731 347 z "},"'":{"ha":347,"x_min":87,"x_max":260,"o":"m 260 694 l 87 694 l 87 1042 l 260 1042 l 260 694 z "},"(":{"ha":521,"x_min":87,"x_max":434,"o":"m 87 1042 l 434 1042 l 434 868 l 260 868 l 260 0 l 434 0 l 434 -174 l 87 -174 l 87 1042 z "},")":{"ha":521,"x_min":87,"x_max":434,"o":"m 260 868 l 87 868 l 87 1042 l 434 1042 l 434 -174 l 87 -174 l 87 0 l 260 0 l 260 868 z "},"*":{"ha":703,"x_min":87,"x_max":616,"o":"m 438 618 l 438 521 l 264 521 l 264 618 l 184 564 l 87 708 l 195 781 l 87 854 l 184 998 l 264 944 l 264 1042 l 438 1042 l 438 944 l 518 998 l 616 854 l 507 781 l 616 708 l 518 564 l 438 618 z "},"+":{"ha":1042,"x_min":87,"x_max":955,"o":"m 608 521 l 955 521 l 955 347 l 608 347 l 608 0 l 434 0 l 434 347 l 87 347 l 87 521 l 434 521 l 434 868 l 608 868 l 608 521 z "},",":{"ha":369,"x_min":87,"x_max":282,"o":"m 260 -87 l 87 -87 l 109 260 l 282 260 l 260 -87 z "},"-":{"ha":1042,"x_min":87,"x_max":955,"o":"m 955 347 l 87 347 l 87 521 l 955 521 l 955 347 z "},".":{"ha":391,"x_min":87,"x_max":304,"o":"m 195 0 q 119 32 151 0 q 87 109 87 64 q 119 185 87 153 q 195 217 151 217 q 272 185 240 217 q 304 109 304 153 q 272 32 304 64 q 195 0 240 0 z "},"/":{"ha":829,"x_min":87,"x_max":742,"o":"m 742 868 l 260 0 l 87 0 l 568 868 l 742 868 z "},":":{"ha":391,"x_min":87,"x_max":304,"o":"m 195 0 q 119 32 151 0 q 87 109 87 64 q 119 185 87 153 q 195 217 151 217 q 272 185 240 217 q 304 109 304 153 q 272 32 304 64 q 195 0 240 0 m 195 477 q 119 509 151 477 q 87 586 87 541 q 119 663 87 631 q 195 694 151 694 q 272 663 240 694 q 304 586 304 631 q 272 509 304 541 q 195 477 240 477 z "},";":{"ha":391,"x_min":87,"x_max":304,"o":"m 195 477 q 119 509 151 477 q 87 586 87 541 q 119 663 87 631 q 195 694 151 694 q 272 663 240 694 q 304 586 304 631 q 272 509 304 541 q 195 477 240 477 m 260 -87 l 87 -87 l 109 260 l 282 260 l 260 -87 z "},"<":{"ha":1085,"x_min":87,"x_max":998,"o":"m 998 0 l 87 434 l 998 868 l 998 673 l 499 434 l 998 195 l 998 0 z "},"=":{"ha":1042,"x_min":87,"x_max":955,"o":"m 955 521 l 87 521 l 87 694 l 955 694 l 955 521 m 955 174 l 87 174 l 87 347 l 955 347 l 955 174 z "},">":{"ha":1085,"x_min":87,"x_max":998,"o":"m 87 0 l 87 195 l 586 434 l 87 673 l 87 868 l 998 434 l 87 0 z "},"?":{"ha":955,"x_min":87,"x_max":868,"o":"m 434 0 q 357 32 389 0 q 326 109 326 64 q 357 185 326 153 q 434 217 389 217 q 511 185 479 217 q 543 109 543 153 q 511 32 543 64 q 434 0 479 0 m 608 694 l 87 694 l 87 868 l 608 868 q 792 792 716 868 q 868 608 868 716 q 792 423 868 499 q 608 347 716 347 l 521 347 l 521 304 l 347 304 l 347 521 l 608 521 q 669 546 644 521 q 694 608 694 571 q 669 669 694 644 q 608 694 644 694 z "},"@":{"ha":1389,"x_min":87,"x_max":1302,"o":"m 521 174 l 1302 174 l 1302 0 l 521 0 q 214 127 340 0 q 87 434 87 254 q 214 741 87 614 q 521 868 340 868 q 829 742 701 868 q 955 521 924 646 l 955 347 l 434 347 l 434 521 l 768 521 q 705 618 749 575 q 521 694 629 694 q 336 618 412 694 q 260 434 260 543 q 336 250 260 326 q 521 174 412 174 z "},"A":{"ha":1042,"x_min":87,"x_max":955,"o":"m 87 0 l 521 911 l 955 0 l 760 0 l 521 499 l 282 0 l 87 0 z "},"B":{"ha":1042,"x_min":87,"x_max":955,"o":"m 694 0 l 87 0 l 87 868 l 694 868 q 879 792 803 868 q 955 608 955 716 q 890 434 955 507 q 955 260 955 361 q 879 76 955 152 q 694 0 803 0 m 260 174 l 694 174 q 756 199 731 174 q 781 260 781 224 q 756 322 781 297 q 694 347 731 347 l 477 347 l 477 521 l 694 521 q 756 546 731 521 q 781 608 781 571 q 756 669 781 644 q 694 694 731 694 l 260 694 l 260 174 z "},"C":{"ha":1042,"x_min":87,"x_max":955,"o":"m 521 174 l 955 174 l 955 0 l 521 0 q 214 127 340 0 q 87 434 87 254 q 214 741 87 614 q 521 868 340 868 l 955 868 l 955 694 l 521 694 q 336 618 412 694 q 260 434 260 543 q 336 250 260 326 q 521 174 412 174 z "},"D":{"ha":1215,"x_min":87,"x_max":1128,"o":"m 694 0 l 87 0 l 87 868 l 694 868 q 1002 741 875 868 q 1128 434 1128 614 q 1002 127 1128 254 q 694 0 875 0 m 260 174 l 694 174 q 879 250 803 174 q 955 434 955 326 q 879 618 955 543 q 694 694 803 694 l 260 694 l 260 174 z "},"E":{"ha":1042,"x_min":87,"x_max":955,"o":"m 955 347 l 477 347 l 477 521 l 955 521 l 955 347 m 955 868 l 955 694 l 260 694 l 260 174 l 955 174 l 955 0 l 87 0 l 87 868 l 955 868 z "},"F":{"ha":1042,"x_min":87,"x_max":955,"o":"m 955 347 l 477 347 l 477 521 l 955 521 l 955 347 m 955 868 l 955 694 l 260 694 l 260 0 l 87 0 l 87 868 l 955 868 z "},"G":{"ha":1420,"x_min":87,"x_max":1333,"o":"m 1157 -174 l 1061 0 l 521 0 q 214 127 340 0 q 87 434 87 254 q 214 741 87 614 q 521 868 340 868 l 1215 868 l 1128 694 l 521 694 q 336 618 412 694 q 260 434 260 543 q 336 250 260 326 q 521 174 412 174 l 964 174 l 868 347 l 521 347 l 521 521 l 955 521 l 1333 -174 l 1157 -174 z "},"H":{"ha":1042,"x_min":87,"x_max":955,"o":"m 260 347 l 260 0 l 87 0 l 87 868 l 260 868 l 260 521 l 781 521 l 781 868 l 955 868 l 955 0 l 781 0 l 781 347 l 260 347 z "},"I":{"ha":347,"x_min":87,"x_max":260,"o":"m 260 0 l 87 0 l 87 868 l 260 868 l 260 0 z "},"J":{"ha":694,"x_min":87,"x_max":608,"o":"m 434 868 l 608 868 l 608 0 q 532 -184 608 -109 q 347 -260 456 -260 q 163 -184 239 -260 q 87 0 87 -109 l 260 0 q 286 -62 260 -37 q 347 -87 311 -87 q 409 -62 384 -87 q 434 0 434 -37 l 434 868 z "},"K":{"ha":1042,"x_min":87,"x_max":955,"o":"m 260 311 l 260 0 l 87 0 l 87 868 l 260 868 l 260 557 l 694 868 l 955 868 l 347 434 l 955 0 l 694 0 l 260 311 z "},"L":{"ha":1042,"x_min":87,"x_max":955,"o":"m 260 174 l 955 174 l 955 0 l 87 0 l 87 868 l 260 868 l 260 174 z "},"M":{"ha":1215,"x_min":87,"x_max":1128,"o":"m 260 521 l 260 0 l 87 0 l 87 868 l 260 868 l 608 217 l 955 868 l 1128 868 l 1128 0 l 955 0 l 955 521 l 694 0 l 521 0 l 260 521 z "},"N":{"ha":1042,"x_min":87,"x_max":955,"o":"m 260 608 l 260 0 l 87 0 l 87 868 l 260 868 l 781 260 l 781 868 l 955 868 l 955 0 l 781 0 l 260 608 z "},"O":{"ha":1042,"x_min":87,"x_max":955,"o":"m 521 0 q 214 127 340 0 q 87 434 87 254 q 214 741 87 614 q 521 868 340 868 q 828 741 701 868 q 955 434 955 614 q 828 127 955 254 q 521 0 701 0 m 521 174 q 705 250 629 174 q 781 434 781 326 q 705 618 781 543 q 521 694 629 694 q 336 618 412 694 q 260 434 260 543 q 336 250 260 326 q 521 174 412 174 z "},"P":{"ha":1042,"x_min":87,"x_max":955,"o":"m 260 0 l 87 0 l 87 868 l 694 868 q 879 792 803 868 q 955 608 955 716 q 879 423 955 499 q 694 347 803 347 l 477 347 l 477 521 l 694 521 q 756 546 731 521 q 781 608 781 571 q 756 669 781 644 q 694 694 731 694 l 260 694 l 260 0 z "},"Q":{"ha":1042,"x_min":87,"x_max":955,"o":"m 576 179 l 434 434 l 608 434 l 708 252 q 781 434 781 328 q 705 618 781 543 q 521 694 629 694 q 336 618 412 694 q 260 434 260 543 q 336 250 260 326 q 521 174 412 174 q 576 179 549 174 m 772 -174 l 663 22 q 521 0 597 0 q 214 127 340 0 q 87 434 87 254 q 214 741 87 614 q 521 868 340 868 q 828 741 701 868 q 955 434 955 614 q 829 127 955 254 q 795 96 812 111 l 945 -174 l 772 -174 z "},"R":{"ha":1042,"x_min":87,"x_max":955,"o":"m 677 0 l 391 521 l 694 521 q 756 546 731 521 q 781 608 781 571 q 756 669 781 644 q 694 694 731 694 l 260 694 l 260 0 l 87 0 l 87 868 l 694 868 q 879 792 803 868 q 955 608 955 716 q 879 423 955 499 q 694 347 803 347 l 656 347 l 849 0 l 677 0 z "},"S":{"ha":1476,"x_min":87,"x_max":1389,"o":"m 1128 0 l 87 0 l 87 174 l 1128 174 q 1190 199 1165 174 q 1215 260 1215 224 q 1190 322 1215 297 q 1128 347 1165 347 l 781 347 q 597 423 673 347 q 521 608 521 499 q 597 792 521 716 q 781 868 673 868 l 1302 868 l 1302 694 l 781 694 q 720 669 745 694 q 694 608 694 644 q 720 546 694 571 q 781 521 745 521 l 1128 521 q 1313 445 1237 521 q 1389 260 1389 369 q 1313 76 1389 152 q 1128 0 1237 0 z "},"T":{"ha":1042,"x_min":87,"x_max":955,"o":"m 608 694 l 608 0 l 434 0 l 434 694 l 87 694 l 87 868 l 955 868 l 955 694 l 608 694 z "},"U":{"ha":1042,"x_min":87,"x_max":955,"o":"m 87 434 l 87 868 l 260 868 l 260 434 q 336 250 260 326 q 521 174 412 174 q 705 250 629 174 q 781 434 781 326 l 781 868 l 955 868 l 955 434 q 828 127 955 254 q 521 0 701 0 q 214 127 340 0 q 87 434 87 254 z "},"V":{"ha":1042,"x_min":87,"x_max":955,"o":"m 87 868 l 282 868 l 521 369 l 760 868 l 955 868 l 521 -43 l 87 868 z "},"W":{"ha":1563,"x_min":87,"x_max":1476,"o":"m 781 503 l 521 -43 l 87 868 l 282 868 l 521 369 l 684 709 l 781 911 l 879 709 l 1042 369 l 1280 868 l 1476 868 l 1042 -43 l 781 503 z "},"X":{"ha":1042,"x_min":87,"x_max":955,"o":"m 412 434 l 87 868 l 304 868 l 521 579 l 738 868 l 955 868 l 629 434 l 955 0 l 738 0 l 521 289 l 304 0 l 87 0 l 412 434 z "},"Y":{"ha":1042,"x_min":87,"x_max":955,"o":"m 434 407 l 87 868 l 304 868 l 521 579 l 738 868 l 955 868 l 608 408 l 608 0 l 434 0 l 434 407 z "},"Z":{"ha":911,"x_min":87,"x_max":825,"o":"m 469 694 l 87 694 l 87 868 l 738 868 l 355 174 l 825 174 l 825 0 l 87 0 l 469 694 z "},"[":{"ha":521,"x_min":87,"x_max":434,"o":"m 87 1042 l 434 1042 l 434 868 l 260 868 l 260 0 l 434 0 l 434 -174 l 87 -174 l 87 1042 z "},"\\":{"ha":829,"x_min":87,"x_max":742,"o":"m 87 868 l 260 868 l 742 0 l 568 0 l 87 868 z "},"]":{"ha":521,"x_min":87,"x_max":434,"o":"m 260 868 l 87 868 l 87 1042 l 434 1042 l 434 -174 l 87 -174 l 87 0 l 260 0 l 260 868 z "},"^":{"ha":694,"x_min":87,"x_max":608,"o":"m 434 1215 l 608 868 l 434 868 l 347 1042 l 260 868 l 87 868 l 260 1215 l 434 1215 z "},"_":{"ha":1042,"x_min":87,"x_max":955,"o":"m 955 -260 l 87 -260 l 87 -87 l 955 -87 l 955 -260 z "},"`":{"ha":521,"x_min":87,"x_max":434,"o":"m 434 868 l 260 868 l 87 1215 l 260 1215 l 434 868 z "},"a":{"ha":1042,"x_min":87,"x_max":955,"o":"m 87 0 l 521 911 l 955 0 l 760 0 l 521 499 l 282 0 l 87 0 z "},"b":{"ha":1042,"x_min":87,"x_max":955,"o":"m 694 0 l 87 0 l 87 868 l 694 868 q 879 792 803 868 q 955 608 955 716 q 890 434 955 507 q 955 260 955 361 q 879 76 955 152 q 694 0 803 0 m 260 174 l 694 174 q 756 199 731 174 q 781 260 781 224 q 756 322 781 297 q 694 347 731 347 l 477 347 l 477 521 l 694 521 q 756 546 731 521 q 781 608 781 571 q 756 669 781 644 q 694 694 731 694 l 260 694 l 260 174 z "},"c":{"ha":1302,"x_min":87,"x_max":1215,"o":"m 521 174 l 1128 174 l 1128 0 l 521 0 q 214 127 340 0 q 87 434 87 254 q 214 741 87 614 q 521 868 340 868 l 1215 868 l 1128 694 l 521 694 q 336 618 412 694 q 260 434 260 543 q 336 250 260 326 q 521 174 412 174 z "},"d":{"ha":1215,"x_min":87,"x_max":1128,"o":"m 694 0 l 87 0 l 87 868 l 694 868 q 1002 741 875 868 q 1128 434 1128 614 q 1002 127 1128 254 q 694 0 875 0 m 260 174 l 694 174 q 879 250 803 174 q 955 434 955 326 q 879 618 955 543 q 694 694 803 694 l 260 694 l 260 174 z "},"e":{"ha":1563,"x_min":87,"x_max":1476,"o":"m 1476 347 l 477 347 l 477 521 l 1476 521 l 1476 347 m 955 868 l 955 694 l 260 694 l 260 174 l 955 174 l 955 0 l 87 0 l 87 868 l 955 868 z "},"f":{"ha":1042,"x_min":87,"x_max":955,"o":"m 955 347 l 477 347 l 477 521 l 955 521 l 955 347 m 87 868 l 955 868 l 955 694 l 260 694 l 260 -347 l 87 -347 l 87 868 z "},"g":{"ha":1563,"x_min":87,"x_max":1476,"o":"m 521 868 l 1215 868 l 1128 694 l 521 694 q 336 618 412 694 q 260 434 260 543 q 336 250 260 326 q 521 174 412 174 l 964 174 l 868 347 l 521 347 l 521 521 l 955 521 l 1476 -434 l 1302 -434 l 1061 0 l 521 0 q 214 127 340 0 q 87 434 87 254 q 214 741 87 614 q 521 868 340 868 z "},"h":{"ha":1042,"x_min":87,"x_max":955,"o":"m 260 347 l 260 0 l 87 0 l 87 868 l 260 868 l 260 521 l 781 521 l 781 868 l 955 868 l 955 0 l 781 0 l 781 347 l 260 347 z "},"i":{"ha":347,"x_min":87,"x_max":260,"o":"m 260 0 l 87 0 l 87 868 l 260 868 l 260 0 z "},"j":{"ha":694,"x_min":87,"x_max":608,"o":"m 434 868 l 608 868 l 608 -174 q 532 -358 608 -282 q 347 -434 456 -434 q 163 -358 239 -434 q 87 -174 87 -282 l 260 -174 q 286 -235 260 -210 q 347 -260 311 -260 q 409 -235 384 -260 q 434 -174 434 -210 l 434 868 z "},"k":{"ha":1042,"x_min":87,"x_max":955,"o":"m 260 311 l 260 0 l 87 0 l 87 868 l 260 868 l 260 557 l 694 868 l 955 868 l 347 434 l 955 0 l 694 0 l 260 311 z "},"l":{"ha":1042,"x_min":87,"x_max":955,"o":"m 260 174 l 955 174 l 955 0 l 87 0 l 87 868 l 260 868 l 260 174 z "},"m":{"ha":1215,"x_min":87,"x_max":1128,"o":"m 260 521 l 260 -347 l 87 -347 l 87 868 l 260 868 l 608 217 l 955 868 l 1128 868 l 1128 0 l 955 0 l 955 521 l 694 0 l 521 0 l 260 521 z "},"n":{"ha":1042,"x_min":87,"x_max":955,"o":"m 260 608 l 260 -347 l 87 -347 l 87 868 l 260 868 l 781 260 l 781 1302 l 955 1302 l 955 0 l 781 0 l 260 608 z "},"o":{"ha":1042,"x_min":87,"x_max":955,"o":"m 521 0 q 214 127 340 0 q 87 434 87 254 q 214 741 87 614 q 521 868 340 868 q 828 741 701 868 q 955 434 955 614 q 828 127 955 254 q 521 0 701 0 m 521 174 q 705 250 629 174 q 781 434 781 326 q 705 618 781 543 q 521 694 629 694 q 336 618 412 694 q 260 434 260 543 q 336 250 260 326 q 521 174 412 174 z "},"p":{"ha":1042,"x_min":87,"x_max":955,"o":"m 260 -347 l 87 -347 l 87 868 l 694 868 q 879 792 803 868 q 955 608 955 716 q 879 423 955 499 q 694 347 803 347 l 477 347 l 477 521 l 694 521 q 756 546 731 521 q 781 608 781 571 q 756 669 781 644 q 694 694 731 694 l 260 694 l 260 -347 z "},"q":{"ha":1128,"x_min":87,"x_max":1042,"o":"m 576 179 l 434 434 l 608 434 l 708 252 q 781 434 781 328 q 705 618 781 543 q 521 694 629 694 q 336 618 412 694 q 260 434 260 543 q 336 250 260 326 q 521 174 412 174 q 576 179 549 174 m 795 96 l 1042 -347 l 868 -347 l 663 22 q 521 0 597 0 q 214 127 340 0 q 87 434 87 254 q 214 741 87 614 q 521 868 340 868 q 828 741 701 868 q 955 434 955 614 q 829 127 955 254 q 795 96 812 111 z "},"r":{"ha":1128,"x_min":87,"x_max":1042,"o":"m 260 0 l 87 0 l 87 868 l 694 868 q 879 792 803 868 q 955 608 955 716 q 879 423 955 499 q 694 347 803 347 l 656 347 l 1042 -347 l 868 -347 l 391 521 l 694 521 q 756 546 731 521 q 781 608 781 571 q 756 669 781 644 q 694 694 731 694 l 260 694 l 260 0 z "},"s":{"ha":1476,"x_min":87,"x_max":1389,"o":"m 1128 0 l 87 0 l 87 174 l 1128 174 q 1190 199 1165 174 q 1215 260 1215 224 q 1190 322 1215 297 q 1128 347 1165 347 l 781 347 q 597 423 673 347 q 521 608 521 499 q 597 792 521 716 q 781 868 673 868 l 1302 868 l 1302 694 l 781 694 q 720 669 745 694 q 694 608 694 644 q 720 546 694 571 q 781 521 745 521 l 1128 521 q 1313 445 1237 521 q 1389 260 1389 369 q 1313 76 1389 152 q 1128 0 1237 0 z "},"t":{"ha":1042,"x_min":87,"x_max":955,"o":"m 608 694 l 608 -347 l 434 -347 l 434 694 l 87 694 l 87 868 l 955 868 l 955 694 l 608 694 z "},"u":{"ha":1042,"x_min":87,"x_max":955,"o":"m 87 434 l 87 868 l 260 868 l 260 434 q 336 250 260 326 q 521 174 412 174 q 705 250 629 174 q 781 434 781 326 l 781 1302 l 955 1302 l 955 434 q 828 127 955 254 q 521 0 701 0 q 214 127 340 0 q 87 434 87 254 z "},"v":{"ha":1042,"x_min":87,"x_max":955,"o":"m 87 868 l 282 868 l 521 369 l 760 868 l 955 868 l 521 -43 l 87 868 z "},"w":{"ha":1563,"x_min":87,"x_max":1476,"o":"m 781 503 l 521 -43 l 87 868 l 282 868 l 521 369 l 684 709 l 781 911 l 879 709 l 1042 369 l 1280 868 l 1476 868 l 1042 -43 l 781 503 z "},"x":{"ha":1042,"x_min":87,"x_max":955,"o":"m 412 434 l 87 868 l 304 868 l 521 579 l 738 868 l 955 868 l 629 434 l 955 0 l 738 0 l 521 289 l 304 0 l 87 0 l 412 434 z "},"y":{"ha":1042,"x_min":87,"x_max":955,"o":"m 434 407 l 87 868 l 304 868 l 521 579 l 738 868 l 955 868 l 608 408 l 608 -347 l 434 -347 l 434 407 z "},"z":{"ha":1389,"x_min":87,"x_max":1302,"o":"m 469 694 l 87 694 l 87 868 l 738 868 l 355 174 l 1302 174 l 1302 0 l 87 0 l 469 694 z "},"{":{"ha":955,"x_min":0,"x_max":868,"o":"m 0 0 l 434 911 l 868 0 l 0 0 m 590 174 l 434 499 l 278 174 l 590 174 z "},"|":{"ha":347,"x_min":87,"x_max":260,"o":"m 260 -174 l 87 -174 l 87 1042 l 260 1042 l 260 -174 z "},"}":{"ha":1042,"x_min":87,"x_max":955,"o":"m 781 694 l 260 694 l 260 174 l 781 174 l 781 694 m 955 868 l 955 0 l 87 0 l 87 868 l 955 868 z "},"~":{"ha":1042,"x_min":87,"x_max":955,"o":"m 955 347 l 87 347 l 87 521 l 955 521 l 955 347 z "},"‘":{"ha":347,"x_min":87,"x_max":260,"o":"m 260 694 l 87 694 l 87 1042 l 260 1042 l 260 694 z "},"’":{"ha":347,"x_min":87,"x_max":260,"o":"m 260 694 l 87 694 l 87 1042 l 260 1042 l 260 694 z "},"“":{"ha":694,"x_min":87,"x_max":608,"o":"m 260 694 l 87 694 l 87 1042 l 260 1042 l 260 694 m 608 694 l 434 694 l 434 1042 l 608 1042 l 608 694 z "},"”":{"ha":694,"x_min":87,"x_max":608,"o":"m 260 694 l 87 694 l 87 1042 l 260 1042 l 260 694 m 608 694 l 434 694 l 434 1042 l 608 1042 l 608 694 z "},"£":{"ha":1389,"x_min":87,"x_max":1302,"o":"m 1302 174 l 1302 0 l 260 0 l 260 347 l 87 347 l 87 521 l 269 521 q 388 742 292 646 q 694 868 514 868 l 1302 868 l 1302 694 l 694 694 q 510 618 586 694 q 448 521 467 575 l 955 521 l 955 347 l 434 347 l 434 174 l 1302 174 z "},"¥":{"ha":1042,"x_min":87,"x_max":955,"o":"m 434 407 l 87 868 l 304 868 l 521 579 l 738 868 l 955 868 l 608 408 l 608 347 l 781 347 l 781 174 l 608 174 l 608 -347 l 434 -347 l 434 174 l 260 174 l 260 347 l 434 347 l 434 407 z "},"€":{"ha":1389,"x_min":87,"x_max":1302,"o":"m 694 174 l 1302 174 l 1302 0 l 694 0 q 388 127 514 0 q 269 347 292 222 l 87 347 l 87 521 l 269 521 q 388 742 292 646 q 694 868 514 868 l 1302 868 l 1302 694 l 694 694 q 510 618 586 694 q 448 521 467 575 l 1085 521 l 1085 347 l 448 347 q 510 250 467 293 q 694 174 586 174 z "},"¢":{"ha":868,"x_min":87,"x_max":781,"o":"m 608 0 l 608 -174 l 434 -174 l 434 8 q 214 127 309 31 q 87 434 87 254 q 214 742 87 614 q 434 860 309 837 l 434 1042 l 608 1042 l 608 868 l 781 868 l 781 694 l 521 694 q 336 618 412 694 q 260 434 260 543 q 336 250 260 326 q 521 174 412 174 l 781 174 l 781 0 l 608 0 z "},"÷":{"ha":1042,"x_min":87,"x_max":955,"o":"m 955 347 l 87 347 l 87 521 l 955 521 l 955 347 m 521 0 q 444 32 476 0 q 412 109 412 64 q 444 185 412 153 q 521 217 476 217 q 597 185 566 217 q 629 109 629 153 q 597 32 629 64 q 521 0 566 0 m 521 651 q 444 683 476 651 q 412 760 412 715 q 444 836 412 804 q 521 868 476 868 q 597 836 566 868 q 629 760 629 804 q 597 683 629 715 q 521 651 566 651 z "}}}
